<svg xmlns="http://www.w3.org/2000/svg" style="display:none"><symbol id="icon-bars" viewBox="0 0 24 28"><path d="M24 21v2q0 .406-.297.703T23 24H1q-.406 0-.703-.297T0 23v-2q0-.406.297-.703T1 20h22q.406 0 .703.297T24 21zm0-8v2q0 .406-.297.703T23 16H1q-.406 0-.703-.297T0 15v-2q0-.406.297-.703T1 12h22q.406 0 .703.297T24 13zm0-8v2q0 .406-.297.703T23 8H1q-.406 0-.703-.297T0 7V5q0-.406.297-.703T1 4h22q.406 0 .703.297T24 5z"/></symbol><symbol id="icon-close" viewBox="0 0 22 28"><path d="M20.281 20.656q0 .625-.438 1.062l-2.125 2.125q-.438.438-1.062.438t-1.062-.438L11 19.249l-4.594 4.594q-.438.438-1.062.438t-1.062-.438l-2.125-2.125q-.438-.438-.438-1.062t.438-1.062L6.751 15l-4.594-4.594q-.438-.438-.438-1.062t.438-1.062l2.125-2.125q.438-.438 1.062-.438t1.062.438L11 10.751l4.594-4.594q.438-.438 1.062-.438t1.062.438l2.125 2.125q.438.438.438 1.062t-.438 1.062L15.249 15l4.594 4.594q.438.438.438 1.062z"/></symbol><symbol id="icon-email-square" viewBox="0 0 32 32"><path d="M29 4H3C1.35 4 0 5.35 0 7v20c0 1.65 1.35 3 3 3h26c1.65 0 3-1.35 3-3V7c0-1.65-1.35-3-3-3zM12.461 17.199L4 23.789V8.113l8.461 9.086zM5.512 8h20.976L16 15.875 5.512 8zm7.278 9.553L16 21l3.21-3.447L25.79 26H6.211l6.58-8.447zm6.749-.354L28 8.113v15.676l-8.461-6.59z"/></symbol><symbol id="icon-facebook-square" viewBox="0 0 24 28"><path d="M19.5 2q1.859 0 3.18 1.32T24 6.5v15q0 1.859-1.32 3.18T19.5 26h-2.938v-9.297h3.109l.469-3.625h-3.578v-2.312q0-.875.367-1.313t1.43-.438l1.906-.016V5.765q-.984-.141-2.781-.141-2.125 0-3.398 1.25t-1.273 3.531v2.672H9.688v3.625h3.125v9.297H4.5q-1.859 0-3.18-1.32T0 21.499v-15q0-1.859 1.32-3.18t3.18-1.32h15z"/></symbol><symbol id="icon-instagram-square" viewBox="0 0 20 20"><path d="M17 1H3c-1.1 0-2 .9-2 2v14c0 1.101.9 2 2 2h14c1.1 0 2-.899 2-2V3c0-1.1-.9-2-2-2zM9.984 15.523a5.539 5.539 0 0 0 5.538-5.539c0-.338-.043-.664-.103-.984H17v7.216a.69.69 0 0 1-.693.69H3.693a.69.69 0 0 1-.693-.69V9h1.549c-.061.32-.104.646-.104.984a5.54 5.54 0 0 0 5.539 5.539zM6.523 9.984c0-1.912 1.55-3.461 3.462-3.461a3.461 3.461 0 1 1 0 6.923 3.461 3.461 0 0 1-3.462-3.462zM16.307 6h-1.615A.694.694 0 0 1 14 5.308V3.691c0-.382.31-.691.691-.691h1.615c.384 0 .694.309.694.691v1.616c0 .381-.31.693-.693.693z"/></symbol><symbol id="icon-twitter-square" viewBox="0 0 24 28"><path d="M20 9.531q-.875.391-1.891.531 1.062-.625 1.453-1.828-1.016.594-2.094.797Q16.515 8 15.077 8q-1.359 0-2.32.961t-.961 2.32q0 .453.078.75-2.016-.109-3.781-1.016t-3-2.422q-.453.781-.453 1.656 0 1.781 1.422 2.734-.734-.016-1.563-.406v.031q0 1.172.781 2.086t1.922 1.133q-.453.125-.797.125-.203 0-.609-.063.328.984 1.164 1.625t1.898.656q-1.813 1.406-4.078 1.406-.406 0-.781-.047 2.312 1.469 5.031 1.469 1.75 0 3.281-.555t2.625-1.484 1.883-2.141 1.172-2.531.383-2.633q0-.281-.016-.422.984-.703 1.641-1.703zM24 6.5v15q0 1.859-1.32 3.18T19.5 26h-15q-1.859 0-3.18-1.32T0 21.5v-15q0-1.859 1.32-3.18T4.5 2h15q1.859 0 3.18 1.32T24 6.5z"/></symbol></svg>